{"title":"Marc Dorcel - 5 Chattes Sauvages - 5 Wild cats","uid":6714447,"size":733768574,"categoryP":"porn","categoryS":"movies","magnet":"?xt=urn:btih:2cd857aee0fbac80c9a20064015699d6af1f5440&amp;dn=Marc+Dorcel+-+5+Chattes+Sauvages+-+5+Wild+cats&amp;tr=udp%3A%2F%2Ftracker.openbittorrent.com%3A80&amp;tr=udp%3A%2F%2Fopen.demonii.com%3A1337&amp;tr=udp%3A%2F%2Ftracker.coppersurfer.tk%3A6969&amp;tr=udp%3A%2F%2Fexodus.desync.com%3A6969","seeders":0,"leechers":0,"uploader":"silviuss","files":1,"time":1317486442,"description":"Marc Dorcel - 5 Chattes Sauvages - 5 Wild cats\n\nCover: &lt;a href=&quot;\nhttp://imagebb.org/view.php?filename=908338391_5_chattes_sauva.jpg&quot; rel=&quot;nofollow&quot; target=&quot;_NEW&quot;&gt;\nhttp://imagebb.org/view.php?filename=908338391_5_chattes_sauva.jpg&lt;/a&gt;\n\nPreview: &lt;a href=&quot;\nhttp://imagebb.org/view.php?filename=370Marc_Dorcel_5_Chattes_.jpg&quot; rel=&quot;nofollow&quot; target=&quot;_NEW&quot;&gt;\nhttp://imagebb.org/view.php?filename=370Marc_Dorcel_5_Chattes_.jpg&lt;/a&gt;\n\n\nInfo:\nFormat                           : AVI\nFormat/Info                      : Audio Video Interleave\nFile size                        : 700 MiB\nDuration                         : 1h 42mn\nOverall bit rate mode            : Variable\nOverall bit rate                 : 951 Kbps\nWriting library                  : VirtualDub Fr build 30091/release\n\nVideo\nID                               : 0\nFormat                           : MPEG-4 Visual\nFormat profile                   : Advanced Simple@L5\nFormat settings, BVOP            : 2\nFormat settings, QPel            : No\nFormat settings, GMC             : No warppoints\nFormat settings, Matrix          : Default (MPEG)\nCodec ID                         : XVID\nCodec ID/Hint                    : XviD\nDuration                         : 1h 42mn\nBit rate                         : 809 Kbps\nWidth                            : 624 pixels\nHeight                           : 352 pixels\nDisplay aspect ratio             : 16:9\nFrame rate                       : 23.976 fps\nColor space                      : YUV\nChroma subsampling               : 4:2:0\nBit depth                        : 8 bits\nScan type                        : Progressive\nCompression mode                 : Lossy\nBits/(Pixel*Frame)               : 0.154\nStream size                      : 596 MiB (85%)\nWriting library                  : XviD 1.2.1 (UTC 2008-12-04)\n\nAudio\nID                               : 1\nFormat                           : MPEG Audio\nFormat version                   : Version 1\nFormat profile                   : Layer 3\nMode                             : Joint stereo\nMode extension                   : MS Stereo\nCodec ID                         : 55\nCodec ID/Hint                    : MP3\nDuration                         : 1h 42mn\nBit rate mode                    : Variable\nBit rate                         : 129 Kbps\nNominal bit rate                 : 144 Kbps\nChannel(s)                       : 2 channels\nSampling rate                    : 48.0 KHz\nCompression mode                 : Lossy\nStream size                      : 94.6 MiB (14%)\nAlignment                        : Aligned on interleaves\nInterleave, duration             : 24 ms (0.58 video frame)\nInterleave, preload duration     : 143 ms\nWriting library                  : LAME3.98r\nEncoding settings                : -m j -V 4 -q 2 -lowpass 17.5 --abr 144\n\n\n","torrent":{"xt":"urn:btih:2cd857aee0fbac80c9a20064015699d6af1f5440","amp;dn":"Marc+Dorcel+-+5+Chattes+Sauvages+-+5+Wild+cats","amp;tr":["udp%3A%2F%2Ftracker.openbittorrent.com%3A80","udp%3A%2F%2Fopen.demonii.com%3A1337","udp%3A%2F%2Ftracker.coppersurfer.tk%3A6969","udp%3A%2F%2Fexodus.desync.com%3A6969"],"infoHash":"2cd857aee0fbac80c9a20064015699d6af1f5440","infoHashBuffer":{"type":"Buffer","data":[44,216,87,174,224,251,172,128,201,162,0,100,1,86,153,214,175,31,84,64]},"announce":[],"urlList":[]}}